<?xml version="1.0" encoding="utf-8"?>
<svg width="10px" height="10px" viewbox="0 0 10 10" version="1.1" xmlns:xlink="http://www.w3.org/1999/xlink" xmlns="http://www.w3.org/2000/svg">
  <path d="M6.72428 0.00452546C6.03114 0.00452546 5.37604 0.257951 4.84774 0.719548C4.31943 0.253426 3.6601 0 2.96697 0C2.17662 0 1.43277 0.330358 0.870648 0.932244C0.308531 1.53413 0 2.33061 0 3.1814C0 4.02766 0.308531 4.82866 0.870648 5.42602L4.22222 9.01471C4.38705 9.1912 4.61106 9.29076 4.84774 9.29076C5.08442 9.29076 5.30419 9.1912 5.47325 9.01471L8.8206 5.43055C9.38272 4.82866 9.69125 4.03218 9.69125 3.1814C9.69125 2.33061 9.38272 1.53413 8.8206 0.932244C8.26271 0.334884 7.51885 0.00452546 6.72428 0.00452546Z" id="Path" fill="none" fill-rule="evenodd" stroke="none" />
</svg>