<?xml version="1.0" encoding="utf-8"?>
<svg width="10px" height="10px" viewbox="0 0 10 10" version="1.1" xmlns:xlink="http://www.w3.org/1999/xlink" xmlns="http://www.w3.org/2000/svg">
  <g id="1828516">
    <path d="M5 10C2.24289 10 0 7.75711 0 5C0 2.24289 2.24289 0 5 0C7.75711 0 10 2.24289 10 5C10 7.75711 7.75711 10 5 10ZM5 0.625C2.58751 0.625 0.625 2.58751 0.625 5C0.625 7.41249 2.58751 9.375 5 9.375C7.41249 9.375 9.375 7.41249 9.375 5C9.375 2.58751 7.41249 0.625 5 0.625Z" id="Shape" fill="#000000" stroke="none" />
    <path d="M1.66656 3.33359C1.58653 3.33359 1.50658 3.30322 1.44569 3.24196L0.0915527 1.88782C-0.0305176 1.76567 -0.0305176 1.56776 0.0915527 1.44569C0.213623 1.32362 0.41153 1.32362 0.533676 1.44569L1.66695 2.57904L4.15451 0.0915527C4.27658 -0.0305176 4.47449 -0.0305176 4.59656 0.0915527C4.71863 0.213623 4.71863 0.41153 4.59656 0.5336L1.8882 3.24196C1.82655 3.30322 1.7466 3.33359 1.66656 3.33359Z" transform="translate(2.864685 3.3330536)" id="Path" fill="#000000" fill-rule="evenodd" stroke="none" />
  </g>
</svg>